<?xml version="1.0" encoding="UTF-8"?>
<svg xmlns="http://www.w3.org/2000/svg" viewBox="0 0 612 189.19">
  <defs>
    <style>
      .cls-1 {
        letter-spacing: .14em;
      }

      .cls-2 {
        letter-spacing: .2em;
      }

      .cls-2, .cls-3, .cls-4 {
        fill: #a61a18;
      }

      .cls-5 {
        fill: #efebea;
      }

      .cls-3 {
        letter-spacing: .17em;
      }

      .cls-6 {
        letter-spacing: 0em;
      }

      .cls-7 {
        font-size: 23.06px;
      }

      .cls-7, .cls-4 {
        font-family: Montserrat-BlackItalic, Montserrat;
        font-style: italic;
        font-weight: 800;
      }

      .cls-4 {
        font-size: 133.36px;
      }

      .cls-8 {
        letter-spacing: .15em;
      }

      .cls-9 {
        letter-spacing: -.03em;
      }

      .cls-10 {
        letter-spacing: .2em;
      }

      .cls-11 {
        fill: #263239;
      }
    </style>
  </defs>
  <g id="Ebene_1" data-name="Ebene 1">
    <rect class="cls-5" width="612" height="189.19"/>
  </g>
  <g id="Ebene_2" data-name="Ebene 2">
    <g>
      <text class="cls-4" transform="translate(4.88 126.14) skewX(-7.72)"><tspan class="cls-9" x="0" y="0">K</tspan><tspan class="cls-6" x="97.35" y="0">ANN</tspan></text>
      <text class="cls-7" transform="translate(122.85 172.05)"><tspan class="cls-1" x="0" y="0">Y</tspan><tspan class="cls-10" x="19.6" y="0">es, </tspan><tspan class="cls-8" x="79.94" y="0">W</tspan><tspan class="cls-10" x="111.1" y="0">e </tspan><tspan class="cls-3" x="142.18" y="0">K</tspan><tspan class="cls-2" x="163.63" y="0">ANN</tspan></text>
      <path class="cls-11" d="M437,108.7c.07-6.49.42-12.94.85-19.37.44-6.43.97-12.85,1.59-19.25.62-6.4,1.36-12.79,2.13-19.17.8-6.38,1.66-12.74,2.57-19.1.34-2.38,2.39-4.1,4.73-4.09h.05c4.08.01,7.99-.11,12.21,0l3.14.08,3.13.21c2.09.1,4.17.36,6.25.62,8.31,1.02,16.5,2.93,24.36,5.68,7.87,2.74,15.39,6.39,22.42,10.72,7,4.38,13.55,9.42,19.2,15.32-7.12-4-14.24-7.68-21.59-10.72-7.32-3.09-14.82-5.55-22.4-7.51-7.58-1.98-15.31-3.23-23.05-4-1.94-.18-3.88-.35-5.82-.43l-2.91-.17-2.92-.04c-3.86-.08-8.03-.06-12.02-.09l4.78-4.09c-1.07,6.33-2.19,12.66-3.38,18.97-1.22,6.31-2.46,12.62-3.83,18.9-1.37,6.29-2.82,12.56-4.37,18.82-1.56,6.26-3.2,12.5-5.11,18.7Z"/>
      <path class="cls-11" d="M461.1,64.57c8.36-.94,16.71-1.59,25.07-2.17,4.18-.33,8.36-.52,12.53-.76,4.18-.24,8.35-.48,12.53-.62l6.27-.25,3.13-.13,1.57-.06,1.79-.02c2.42.03,4.94.44,7.42,1.28,2.47.88,4.88,2.25,6.84,4.1,3.97,3.72,6.08,8.56,7.2,13.1,1.14,4.59,1.5,9.11,1.52,13.54l-4.2-4.81c7.76,1,15.5,2.1,23.24,3.19l11.6,1.72,2.9.44c.44.06,1.03.18,1.63.32.59.13,1.18.26,1.72.43,2.21.63,4.36,1.5,6.36,2.64,4,2.25,7.45,5.43,9.98,9.2,1.28,1.88,2.29,3.93,3.08,6.04l.54,1.57.43,1.4.86,2.8,3.44,11.2,3.29,11.25.07.25c.4,1.36-.38,2.79-1.75,3.19-.28.08-.57.11-.84.1-5.82-.27-56.44-2.03-62.26-2.67,5.82-.63,56.44-2.39,62.26-2.67l-2.51,3.55-4.46-10.84-4.31-10.89-1.07-2.72-.54-1.36-.51-1.17c-.69-1.5-1.56-2.89-2.53-4.2-1.96-2.61-4.55-4.69-7.41-6.15-1.43-.74-2.95-1.28-4.5-1.66-.39-.11-.76-.17-1.13-.24-.35-.07-.72-.14-1.25-.19l-2.9-.35-11.59-1.44c-7.72-1.01-15.44-2.02-23.14-3.12h-.03c-2.43-.35-4.18-2.43-4.18-4.81,0-3.92-.22-7.8-1-11.35-.79-3.54-2.1-6.72-4.19-8.84-2.03-2.17-4.98-3.36-8.51-3.72l-1.34-.11-1.57-.06-3.13-.13-6.27-.25c-4.18-.14-8.36-.38-12.53-.62-4.18-.24-8.36-.43-12.53-.76-8.36-.58-16.71-1.23-25.07-2.17Z"/>
      <path class="cls-11" d="M184.97,139.1c8.62-1.27,236.49-3.91,245.11-4.25,17.23-.69,34.47-.77,51.7-.45l-4.7,4.7c.08-6.83,3.29-13.49,8.41-17.76,2.54-2.16,5.54-3.74,8.7-4.65,1.58-.45,3.21-.69,4.83-.81.81-.04,1.62-.02,2.43-.02l2.09.13,2.09.16c.8.09,1.59.16,2.37.29,1.56.3,3.09.72,4.54,1.31,2.92,1.16,5.49,3.01,7.55,5.24,4.19,4.41,6.07,10.6,5.21,16.11-.41-2.76-1.36-5.33-2.7-7.59-1.37-2.24-3.13-4.15-5.14-5.63-2.02-1.47-4.29-2.47-6.6-3.05-1.16-.28-2.34-.41-3.51-.46-.59,0-1.18.04-1.75.05l-2.05.15-2.04.14c-.57.08-1.14.13-1.69.22-1.11.22-2.19.54-3.23.95-2.07.82-3.92,2.1-5.46,3.64-3.08,3.09-4.78,7.34-4.63,11.57.08,2.51-1.88,4.61-4.39,4.69h-.05s-.27,0-.27,0c-17.23.32-34.47.24-51.7-.45-8.62-.34-236.49-2.98-245.11-4.25Z"/>
    </g>
  </g>
</svg>